<svg width="422" height="218" viewBox="0 0 422 218" fill="none" xmlns="http://www.w3.org/2000/svg">
<path d="M7.22522 129.093V8.90832H37.8724C61.1582 8.90832 67.9186 23.4807 67.9186 40.1564V43.0108C67.9186 56.2311 62.3601 62.6911 53.0457 66.1464C62.6605 70.0524 68.2191 77.7142 68.2191 91.5355V94.0894C68.2191 116.324 61.1582 129.093 38.7738 129.093H7.22522ZM33.3654 107.31H35.3184C39.9756 107.31 41.4779 105.807 41.4779 100.099V85.8267C41.4779 80.1179 39.9756 78.6156 35.3184 78.6156H33.3654V107.31ZM33.3654 56.8321H35.018C39.6751 56.8321 41.1775 55.3297 41.1775 49.621V37.9029C41.1775 32.1941 39.6751 30.6918 35.1682 30.6918H33.3654V56.8321Z" fill="white"/>
<path d="M69.0489 129.093L83.4711 8.90832H119.677L134.099 129.093H107.508L106.456 111.216H96.6914L95.6398 129.093H69.0489ZM97.8932 89.4322H105.104L102.1 37.0015L101.799 33.2458H101.198L100.898 37.0015L97.8932 89.4322Z" fill="white"/>
<path d="M137.797 129.093V8.90832H166.942L176.256 67.3482L185.571 8.90832H214.716V129.093H191.58V71.8552L181.364 129.093H171.149L160.933 71.8552V129.093H137.797Z" fill="white"/>
<path d="M222.156 129.093V8.90832H252.803C276.089 8.90832 282.849 23.4807 282.849 40.1564V43.0108C282.849 56.2311 277.29 62.6911 267.976 66.1464C277.591 70.0524 283.149 77.7142 283.149 91.5355V94.0894C283.149 116.324 276.089 129.093 253.704 129.093H222.156ZM248.296 107.31H250.249C254.906 107.31 256.408 105.807 256.408 100.099V85.8267C256.408 80.1179 254.906 78.6156 250.249 78.6156H248.296V107.31ZM248.296 56.8321H249.948C254.605 56.8321 256.108 55.3297 256.108 49.621V37.9029C256.108 32.1941 254.605 30.6918 250.099 30.6918H248.296V56.8321Z" fill="white"/>
<path d="M318.805 130.596C298.824 130.596 288.157 119.178 288.157 93.7889V44.2126C288.157 18.8236 298.824 7.40601 318.805 7.40601C338.785 7.40601 349.452 18.8236 349.452 44.2126V93.7889C349.452 119.178 338.785 130.596 318.805 130.596ZM314.899 103.554C314.899 107.46 315.65 109.563 318.805 109.563C321.959 109.563 322.711 107.46 322.711 103.554V34.7481C322.711 30.6918 321.959 28.4384 318.805 28.4384C315.65 28.4384 314.899 30.5416 314.899 34.5979V103.554Z" fill="white"/>
<path d="M386.145 130.596C366.164 130.596 355.497 119.178 355.497 93.7889V44.2126C355.497 18.8236 366.164 7.40601 386.145 7.40601C406.125 7.40601 416.792 18.8236 416.792 44.2126V93.7889C416.792 119.178 406.125 130.596 386.145 130.596ZM382.238 103.554C382.238 107.46 382.99 109.563 386.145 109.563C389.299 109.563 390.051 107.46 390.051 103.554V34.7481C390.051 30.6918 389.299 28.4384 386.145 28.4384C382.99 28.4384 382.238 30.5416 382.238 34.5979V103.554Z" fill="white"/>
<path d="M37.5611 210.877H44.7557L20.4924 190.037L44.7557 169.197H37.5611L16.4237 187.655H12.6528V169.197H7.44287V210.877H12.6528V192.419H16.4237L37.5611 210.877Z" fill="white"/>
<path d="M57.5653 210.877H88.7751V206.212H75.7751V173.861H88.7751V169.197H57.5653V173.861H70.5652V206.212H57.5653V210.877Z" fill="white"/>
<path d="M118.52 210.877H123.729V173.861H140.054V169.197H102.245V173.861H118.52V210.877Z" fill="white"/>
<path d="M173.044 211.373C185.647 211.373 192.891 203.583 193.586 194.354L193.636 193.461H188.178L188.128 194.354C187.632 201.052 182.571 206.56 173.094 206.56C162.078 206.56 156.968 199.316 156.968 189.987C156.968 180.907 162.078 173.514 173.143 173.514C182.372 173.514 187.632 178.922 188.128 185.571L188.178 186.514H193.636L193.586 185.571C192.891 176.442 185.597 168.701 173.094 168.701C159.002 168.701 151.609 178.327 151.609 189.987C151.609 201.747 158.953 211.373 173.044 211.373Z" fill="white"/>
<path d="M243.395 210.877H248.605V169.197H243.395V187.705H216.998V169.197H211.788V210.877H216.998V192.369H243.395V210.877Z" fill="white"/>
<path d="M269.343 210.877H301.396V206.212H274.553V192.369H299.957V187.705H274.553V173.861H301.396V169.197H269.343V210.877Z" fill="white"/>
<path d="M320.211 210.877H325.372V176.243L352.86 210.877H358.02V169.197H352.91V203.831L325.421 169.197H320.211V210.877Z" fill="white"/>
<path d="M395.902 211.373C407.91 211.373 413.566 207.602 413.566 199.216C413.566 191.575 408.158 189.193 401.608 188.102L391.933 186.365C387.12 185.522 383.002 184.083 383.002 179.915C383.002 175.598 387.07 173.365 394.612 173.365C403.295 173.365 407.066 176.342 407.066 181.9V182.396H412.425V181.9C412.425 173.514 406.272 168.701 394.563 168.701C383.944 168.701 377.643 172.621 377.643 180.064C377.643 186.911 383.051 189.442 389.303 190.583L398.681 192.319C404.734 193.361 408.208 194.503 408.208 199.464C408.208 204.426 404.337 206.709 396.051 206.709C385.929 206.709 381.315 203.434 381.315 196.388V195.892H375.956V196.388C375.956 206.064 382.406 211.373 395.902 211.373Z" fill="white"/>
</svg>
