<svg width="1200" height="1500" viewBox="0 0 1200 1500" fill="none" xmlns="http://www.w3.org/2000/svg">
<g clip-path="url(#clip0_156_876)">
<path d="M436.189 95.8435C458.919 53.6482 511.552 37.8672 553.748 60.5967C595.943 83.3266 611.724 135.96 588.994 178.156L378.579 568.757C450.464 541.032 526.087 519.402 599.849 509.01C747.193 488.253 917.201 509.949 1010.52 659.831C1092.43 791.38 1094.3 928.361 1046.51 1049.09C1000.04 1166.49 908.225 1265.83 804.827 1337C701.393 1408.19 578.599 1456.59 462.157 1464.74C345.34 1472.91 222.495 1440.19 146.279 1332.68C88.4561 1251.11 94.3191 1142.83 155.628 1047.79C216.077 954.075 330.607 869.237 503.854 805.996C548.876 789.561 598.697 812.737 615.132 857.759C631.566 902.781 608.39 952.602 563.368 969.037C410.894 1024.7 334.295 1090.99 301.478 1141.87C269.521 1191.41 279.978 1221.17 287.876 1232.31C317.544 1274.16 370.695 1297.15 450.04 1291.6C529.76 1286.02 623.297 1251.24 706.418 1194.03C789.573 1136.79 854.538 1062.49 885.127 985.21C914.397 911.265 913.602 832.544 863.185 751.57C824.888 690.063 747.307 663.516 624.061 680.879C503.648 697.843 367.947 754.598 262.67 817.711C217.288 844.918 168.395 830.297 140.796 804.574C112.989 778.657 94.65 729.871 120.332 682.195L436.189 95.8435Z" fill="#074325"/>
</g>
<defs>
<clipPath id="clip0_156_876">
<rect width="1200" height="1500" fill="white"/>
</clipPath>
</defs>
</svg>
