<svg width="210" height="303" viewBox="0 0 210 303" fill="none" xmlns="http://www.w3.org/2000/svg">
<path d="M44.7929 14.0027C48.3388 3.2985 59.8908 -2.5046 70.595 1.04123C81.2992 4.58712 87.1023 16.1392 83.5565 26.8433L56.5285 108.433C68.863 101.383 81.8752 95.3047 94.9153 91.053C124.667 81.3522 161.705 79.306 186.957 108.182C208.166 132.434 213.149 161.286 208.283 188.263C203.519 214.668 189.416 239.463 171.995 258.799C154.679 278.018 132.422 293.676 109.459 299.778C85.6383 306.108 59.0783 302.199 40.945 278.84C25.9471 259.521 27.3565 234.01 38.2616 212.87C49.3298 191.413 70.7679 172.222 100.941 160.085C111.402 155.877 123.295 160.947 127.503 171.408C131.711 181.87 126.641 193.762 116.18 197.971C93.3861 207.139 80.3512 220.35 74.5527 231.59C68.5914 243.147 70.7405 250.63 73.2009 253.8C78.7352 260.928 86.5719 263.608 98.9713 260.313C112.227 256.79 128.013 246.611 141.657 231.466C155.197 216.438 164.971 198.342 168.097 181.014C171.119 164.26 168.003 148.538 156.219 135.063C147.373 124.948 131.983 121.918 107.574 129.877C83.8517 137.611 58.2452 154.04 39.0736 170.664C29.8207 178.687 18.0933 177.305 10.7933 172.564C3.43753 167.786 -2.71061 157.404 1.2319 145.503L44.7929 14.0027Z" fill="#F1ECE4"/>
</svg>
